<svg xmlns="http://www.w3.org/2000/svg" xmlns:xlink="http://www.w3.org/1999/xlink" preserveAspectRatio="xMidYMid" width="122" height="122" viewBox="0 0 122 122">
  <defs>
    <style>
      .cls-1 {
        fill: #fff;
        opacity: 0.9;
        fill-rule: evenodd;
      }
    </style>
  </defs>
  <path d="M61.000,122.000 C27.311,122.000 -0.000,94.689 -0.000,61.000 C-0.000,27.311 27.311,-0.000 61.000,-0.000 C94.689,-0.000 122.000,27.311 122.000,61.000 C122.000,94.689 94.689,122.000 61.000,122.000 ZM42.039,38.241 C37.685,38.241 33.814,39.358 30.424,41.593 C27.033,43.827 24.322,47.092 22.290,51.387 C20.258,55.683 19.242,60.335 19.242,65.343 C19.242,70.505 20.595,74.517 23.301,77.377 C26.007,80.237 29.749,81.668 34.527,81.668 C38.263,81.668 41.865,81.023 45.333,79.732 L45.333,73.809 C41.711,75.119 38.543,75.773 35.827,75.773 C32.725,75.773 30.380,74.854 28.791,73.014 C27.202,71.175 26.407,68.521 26.407,65.054 C26.407,61.124 27.105,57.518 28.502,54.233 C29.899,50.949 31.762,48.450 34.093,46.736 C36.424,45.021 39.072,44.164 42.039,44.164 C43.772,44.164 45.323,44.395 46.691,44.857 C48.058,45.320 49.349,45.879 50.562,46.533 L53.278,40.899 C49.965,39.127 46.218,38.241 42.039,38.241 ZM91.793,38.848 L74.284,72.046 L74.110,72.046 L70.961,38.848 L61.629,38.848 L52.700,81.090 L59.028,81.090 L64.345,55.837 C65.230,51.561 65.760,48.286 65.934,46.013 L66.107,46.013 L69.430,81.090 L75.353,81.090 L93.931,46.013 L94.105,46.013 C93.199,49.018 92.371,52.312 91.620,55.895 L86.361,81.090 L92.920,81.090 L101.733,38.848 L91.793,38.848 Z" class="cls-1"/>
</svg>
